<?xml version="1.0" encoding="UTF-8"?>
<svg id="Layer_1" data-name="Layer 1" xmlns="http://www.w3.org/2000/svg" viewBox="0 0 160 160">
  <defs>
    <style>
      .cls-1 {
        fill: #fff;
      }
    </style>
  </defs>
  <g id="Crno">
    <path class="cls-1" d="M42.13,123l33.65,33.64c1.79-.1,5.01-1.5,5.01-1.5,2.03,.36,3.05-.69,3.05-.69,3.53-7.86,8.28-6.55,8.28-6.55,9.82-3.26,17.15-12.29,17.15-12.29L29.34,55.89s-9.01,7.36-12.25,17.18c0,0,1.32,4.75-6.53,8.3,0,0-1.05,1.02-.68,3.05,0,0-1.39,3.23-1.49,5.01l33.72,33.56"/>
    <path class="cls-1" d="M131.37,6.13h4.94s1.03,11.58,1.03,11.58c.75,1.57,.68,3.74,.68,3.74,2.56,6.42,2.97,20.78,2.97,20.78l.33,72.38c-.06,5.01-1.7,9.2-2.07,11.3-.37,2.09-1.89,7.99-1.89,7.99l-.61,10.78h-5.2"/>
    <path class="cls-1" d="M131.55,144.68l-.66-10.78s-1.55-5.89-1.93-7.98-2.03-6.28-2.12-11.29l-.03-72.38s.34-14.36,2.86-20.79c0,0-.08-2.17,.66-3.74l.97-11.59h4.94"/>
    <path class="cls-1" d="M95.5,10.87l4.76-1.29,3.99,10.93c1.13,1.32,1.63,3.43,1.63,3.43,4.13,5.54,8.24,19.3,8.24,19.3l19.05,69.83c1.24,4.86,.74,9.33,.93,11.45,.19,2.12,.25,8.21,.25,8.21l2.2,10.57-5.02,1.36"/>
    <path class="cls-1" d="M131.53,144.66l-3.43-10.24s-3.02-5.29-3.93-7.21c-.91-1.92-3.59-5.54-4.97-10.35l-18.76-69.91s-3.39-13.96-2.61-20.83c0,0-.64-2.07-.33-3.78l-2.07-11.45,4.76-1.29"/>
    <path class="cls-1" d="M62.07,24.76l4.27-2.48,6.68,9.52c1.44,.98,2.46,2.9,2.46,2.9,5.43,4.28,12.96,16.51,12.96,16.51l36.48,62.52c2.45,4.37,3.13,8.82,3.86,10.82,.73,2,2.36,7.87,2.36,7.87l4.86,9.64-4.5,2.61"/>
    <path class="cls-1" d="M131.5,144.66l-5.96-9s-4.29-4.33-5.66-5.95-4.9-4.42-7.48-8.71l-36.22-62.67s-6.89-12.6-7.92-19.44c0,0-1.15-1.84-1.3-3.57l-4.96-10.52,4.27-2.48"/>
    <path class="cls-1" d="M33.43,46.74l3.48-3.5,8.92,7.47c1.64,.58,3.12,2.16,3.12,2.16,6.35,2.73,16.79,12.59,16.79,12.59l51.41,50.95c3.5,3.59,5.31,7.71,6.53,9.45,1.22,1.74,4.32,6.99,4.32,6.99l7.19,8.05-3.67,3.68"/>
    <path class="cls-1" d="M131.53,144.59l-8.09-7.15s-5.26-3.07-7.01-4.28c-1.75-1.21-5.88-3-9.48-6.48l-51.2-51.16s-9.91-10.39-12.68-16.73c0,0-1.59-1.48-2.18-3.11l-7.51-8.88,3.48-3.5"/>
  </g>
</svg>